<svg width="30" height="30" fill="#179942" xmlns="http://www.w3.org/2000/svg" viewBox="6 7 18 16" class="icon"><path fill-rule="evenodd" d="M20.013 11.856V8.31a.498.498 0 00-.494-.507h-1.002a.507.507 0 00-.504.507v1.52l-2.649-2.681a.493.493 0 00-.706 0l-8.545 8.4c-.196.2-.13.36.146.36H8.01v6.584c0 .28.215.507.492.507h4.006a.506.506 0 00.503-.507v-4.052c0-.28.222-.507.498-.507h3.004c.277 0 .499.227.499.507v4.052c0 .28.227.507.503.507h4.005a.496.496 0 00.492-.507v-6.585h1.73c.277 0 .339-.16.144-.358l-3.874-3.694z"></path></svg>